<svg width="390" height="150" viewBox="0 0 390 150" fill="none" xmlns="http://www.w3.org/2000/svg">
<path d="M189.119 70.3026C182.5 70.3026 177.176 77.6407 177.176 86.5614C177.176 95.4822 182.5 102.82 189.119 102.82C195.594 102.82 200.917 95.4822 200.917 86.5614C200.917 77.6407 195.594 70.3026 189.119 70.3026ZM216.169 108H200.917V100.518C196.888 105.122 190.845 108 184.083 108C171.853 108 161.925 98.5037 161.925 86.5614C161.925 74.6191 171.853 65.1228 184.083 65.1228C190.701 65.1228 196.601 67.8566 200.629 72.317C199.622 63.684 195.45 54.7633 189.119 54.7633C179.622 54.7633 174.587 63.2524 167.249 67.425V44.2598H156.745V38.9361H221.492V44.2598H172.572V51.0223C177.608 50.0151 182.932 49.5835 189.119 49.5835C204.083 49.5835 216.169 61.6696 216.169 76.6335V108ZM218.6 44.2598V38.9361H244.499V44.2598H218.6ZM231.55 33.6124C227.377 33.6124 223.924 30.1592 223.924 25.8427C223.924 21.6701 227.377 18.2169 231.55 18.2169C235.722 18.2169 239.175 21.6701 239.175 25.8427C239.175 30.1592 235.722 33.6124 231.55 33.6124ZM223.924 59.943C223.924 57.2093 221.622 54.9071 218.744 54.9071H218.6V49.5835H239.175V112.173C239.175 131.453 232.125 139.367 217.305 139.367V134.043C224.787 134.043 223.924 121.957 223.924 112.173V59.943ZM271.284 44.2598L272.291 38.9361H305.096V44.2598H271.284ZM248.838 51.8856C248.982 51.4539 249.701 47.5691 250.421 44.2598H240.349V38.9361H266.824C266.68 39.7994 264.234 51.4539 263.946 52.7489C261.788 66.5617 255.601 102.82 272.291 102.82C278.478 102.82 283.658 93.0362 284.089 80.5183C284.089 66.7055 284.089 63.3962 284.089 49.5835H299.341V99.367L284.089 108.144V97.9282C279.917 104.259 274.018 108.144 267.255 108.144C239.198 108.144 246.104 69.871 248.838 51.8856ZM300.909 44.2598V38.9361H365.657V44.2598H300.909ZM306.665 58.3603L321.916 49.5835V59.6553C325.945 53.4683 331.988 49.5835 338.607 49.5835C367.959 49.5835 359.182 91.3096 356.592 108H341.34C342.923 98.2159 351.844 54.7633 333.715 54.7633C326.089 54.7633 321.484 68.1444 321.916 80.5183V108H306.665V58.3603ZM369.095 59.943C369.095 57.2093 366.793 54.9071 363.915 54.9071H363.771V49.5835H384.347V108H369.095V59.943ZM376.721 33.6124C372.404 33.6124 369.095 30.1592 369.095 25.8427C369.095 21.6701 372.404 18.2169 376.721 18.2169C380.894 18.2169 384.347 21.6701 384.347 25.8427C384.347 30.1592 380.894 33.6124 376.721 33.6124ZM363.771 44.2598V38.9361H389.67V44.2598H363.771Z" fill="#010101"/>
<path d="M10.0775 41.6549L33.6315 28.076L50.9198 40.8026L29.4765 52.866L10.0775 41.6549Z" fill="#D9D9D9"/>
<path d="M10.0775 41.6549L33.6315 28.076L50.9198 40.8026L29.4765 52.866L10.0775 41.6549Z" fill="url(#paint0_linear_325_378)"/>
<path d="M10.0364 64.9044L10.0774 41.6554L71.1682 76.9262L51.0545 88.5862L10.0364 64.9044Z" fill="#D9D9D9"/>
<path d="M10.0364 64.9044L10.0774 41.6554L71.1682 76.9262L51.0545 88.5862L10.0364 64.9044Z" fill="url(#paint1_linear_325_378)"/>
<path d="M10.8325 114.213L10.8325 86.8732L30.4834 78.1859L30.3574 103.001L10.8325 114.213Z" fill="#D9D9D9"/>
<path d="M10.8325 114.213L10.8325 86.8732L30.4834 78.1859L30.3574 103.001L10.8325 114.213Z" fill="url(#paint2_linear_325_378)"/>
<path d="M30.9465 125.873L10.8328 114.213L71.9236 78.9418L71.9646 102.191L30.9465 125.873Z" fill="url(#paint3_linear_325_378)"/>
<path d="M137.178 112.518L113.753 126.018L96.4915 113.275L117.91 101.355L137.178 112.518Z" fill="#D9D9D9"/>
<path d="M137.178 112.518L113.753 126.018L96.4915 113.275L117.91 101.355L137.178 112.518Z" fill="url(#paint4_linear_325_378)"/>
<path d="M137.217 89.2709L137.176 112.52L76.0852 77.2491L96.1989 65.5891L137.217 89.2709Z" fill="#D9D9D9"/>
<path d="M137.217 89.2709L137.176 112.52L76.0852 77.2491L96.1989 65.5891L137.217 89.2709Z" fill="url(#paint5_linear_325_378)"/>
<path d="M136.155 39.9608L136.044 67.0394L116.393 75.666L116.735 51.1184L136.155 39.9608Z" fill="#D9D9D9"/>
<path d="M136.155 39.9608L136.044 67.0394L116.393 75.666L116.735 51.1184L136.155 39.9608Z" fill="url(#paint6_linear_325_378)"/>
<path d="M116.053 28.3017L136.167 39.9618L75.0764 75.2326L75.0354 51.9836L116.053 28.3017Z" fill="#D9D9D9"/>
<path d="M116.053 28.3017L136.167 39.9618L75.0764 75.2326L75.0354 51.9836L116.053 28.3017Z" fill="url(#paint7_linear_325_378)"/>
<path d="M52.6538 15.9578L72.8086 4.36884V74.9105L52.6538 63.3215V15.9578Z" fill="#D9D9D9"/>
<path d="M52.6538 15.9578L72.8086 4.36884V74.9105L52.6538 63.3215V15.9578Z" fill="url(#paint8_linear_325_378)"/>
<path d="M72.8081 4.3688L96.1535 17.8473L93.7463 39.1483L72.8081 26.665L72.8081 4.3688Z" fill="#D9D9D9"/>
<path d="M72.8081 4.3688L96.1535 17.8473L93.7463 39.1483L72.8081 26.665L72.8081 4.3688Z" fill="url(#paint9_linear_325_378)"/>
<path d="M94.7271 138.398L74.5723 149.987L74.5723 79.4453L94.727 91.0343L94.7271 138.398Z" fill="#D9D9D9"/>
<path d="M94.7271 138.398L74.5723 149.987L74.5723 79.4453L94.727 91.0343L94.7271 138.398Z" fill="url(#paint10_linear_325_378)"/>
<path d="M74.6006 150L51.2552 136.521L53.6624 115.22L74.6006 127.703L74.6006 150Z" fill="#D9D9D9"/>
<path d="M74.6006 150L51.2552 136.521L53.6624 115.22L74.6006 127.703L74.6006 150Z" fill="url(#paint11_linear_325_378)"/>
<defs>
<linearGradient id="paint0_linear_325_378" x1="46.0226" y1="32.2856" x2="14.9453" y2="50.1528" gradientUnits="userSpaceOnUse">
<stop stop-color="#4D26B8"/>
<stop offset="1" stop-color="#8E37F9"/>
</linearGradient>
<linearGradient id="paint1_linear_325_378" x1="5.03869" y1="50.3827" x2="66.1295" y2="85.6535" gradientUnits="userSpaceOnUse">
<stop stop-color="#6637E6"/>
<stop offset="1" stop-color="#8E37F9"/>
</linearGradient>
<linearGradient id="paint2_linear_325_378" x1="20.658" y1="78.1859" x2="20.658" y2="114.213" gradientUnits="userSpaceOnUse">
<stop stop-color="#4D26B8"/>
<stop offset="1" stop-color="#8E37F9"/>
</linearGradient>
<linearGradient id="paint3_linear_325_378" x1="15.8715" y1="122.94" x2="76.9623" y2="87.669" gradientUnits="userSpaceOnUse">
<stop stop-color="#6637E6"/>
<stop offset="1" stop-color="#8E37F9"/>
</linearGradient>
<linearGradient id="paint4_linear_325_378" x1="101.389" y1="121.793" x2="132.355" y2="103.99" gradientUnits="userSpaceOnUse">
<stop stop-color="#4D26B8"/>
<stop offset="1" stop-color="#8E37F9"/>
</linearGradient>
<linearGradient id="paint5_linear_325_378" x1="142.215" y1="103.793" x2="81.1239" y2="68.5219" gradientUnits="userSpaceOnUse">
<stop stop-color="#6637E6"/>
<stop offset="1" stop-color="#8E37F9"/>
</linearGradient>
<linearGradient id="paint6_linear_325_378" x1="126.219" y1="75.6658" x2="126.219" y2="39.8912" gradientUnits="userSpaceOnUse">
<stop stop-color="#4D26B8"/>
<stop offset="1" stop-color="#8E37F9"/>
</linearGradient>
<linearGradient id="paint7_linear_325_378" x1="131.129" y1="31.2345" x2="70.0377" y2="66.5053" gradientUnits="userSpaceOnUse">
<stop stop-color="#6637E6"/>
<stop offset="1" stop-color="#8E37F9"/>
</linearGradient>
<linearGradient id="paint8_linear_325_378" x1="62.7312" y1="4.36884" x2="62.7312" y2="74.9105" gradientUnits="userSpaceOnUse">
<stop stop-color="#6637E6"/>
<stop offset="1" stop-color="#8E37F9"/>
</linearGradient>
<linearGradient id="paint9_linear_325_378" x1="98.659" y1="30.6393" x2="67.8954" y2="12.8779" gradientUnits="userSpaceOnUse">
<stop stop-color="#4D26B8"/>
<stop offset="1" stop-color="#8E37F9"/>
</linearGradient>
<linearGradient id="paint10_linear_325_378" x1="84.6497" y1="149.987" x2="84.6497" y2="79.4453" gradientUnits="userSpaceOnUse">
<stop stop-color="#6637E6"/>
<stop offset="1" stop-color="#8E37F9"/>
</linearGradient>
<linearGradient id="paint11_linear_325_378" x1="48.7497" y1="123.729" x2="79.5133" y2="141.49" gradientUnits="userSpaceOnUse">
<stop stop-color="#4D26B8"/>
<stop offset="1" stop-color="#8E37F9"/>
</linearGradient>
</defs>
</svg>
